<svg xmlns="http://www.w3.org/2000/svg" xmlns:xlink="http://www.w3.org/1999/xlink" width="29px" height="39px">
  <path fill-rule="evenodd" fill="rgb(0, 0, 0)" d="M25.467 38.105L4.468 38.105C2.535 38.105 0.969 36.537 0.969 34.605L0.969 21.772C0.969 19.839 2.535 18.272 4.468 18.272L5.635 18.272 5.635 8.939C5.635 4.429 9.814 0.773 14.968 0.773 20.122 0.773 24.301 4.429 24.301 8.939L24.301 18.272 25.467 18.272C27.4 18.272 28.967 19.839 28.967 21.772L28.967 34.605C28.967 36.537 27.4 38.105 25.467 38.105ZM19.634 8.939C19.634 7.006 17.545 5.439 14.968 5.439 12.391 5.439 10.301 7.006 10.301 8.939L10.301 17.105C10.301 17.517 10.413 17.906 10.587 18.272L19.349 18.272C19.522 17.906 19.634 17.517 19.634 17.105L19.634 8.939ZM14.968 21.772C12.391 21.772 10.301 23.861 10.301 26.438 10.301 28.161 11.246 29.649 12.635 30.458L12.635 32.271C12.635 33.56 13.679 34.605 14.968 34.605 16.257 34.605 17.301 33.56 17.301 32.271L17.301 30.458C18.69 29.649 19.634 28.161 19.634 26.438 19.634 23.861 17.545 21.772 14.968 21.772Z"/>
</svg>
