<svg xmlns="http://www.w3.org/2000/svg" xmlns:xlink="http://www.w3.org/1999/xlink" width="39px" height="40px">
  <path fill-rule="evenodd" fill="rgb(0, 0, 0)" d="M35.279 17.015L3.616 17.015C1.715 17.015 0.174 15.473 0.174 13.573 0.174 11.672 1.715 10.131 3.616 10.131L7.511 10.131C7.572 9.911 7.651 9.693 7.771 9.486L11.901 2.332C12.661 1.015 14.345 0.564 15.662 1.324 16.979 2.085 17.43 3.769 16.67 5.086L13.756 10.131 25.139 10.131 22.226 5.086C21.465 3.769 21.917 2.085 23.234 1.324 24.55 0.564 26.234 1.015 26.995 2.332L31.125 9.486C31.244 9.693 31.324 9.911 31.385 10.131L35.279 10.131C37.18 10.131 38.721 11.672 38.721 13.573 38.721 15.473 37.18 17.015 35.279 17.015ZM34.697 39.041L4.199 39.041 3.007 18.391 35.888 18.391 34.697 39.041ZM12.564 25.274C12.564 24.514 11.948 23.898 11.188 23.898 10.427 23.898 9.811 24.514 9.811 25.274L9.811 33.534C9.811 34.295 10.427 34.911 11.188 34.911 11.948 34.911 12.564 34.295 12.564 33.534L12.564 25.274ZM20.824 25.274C20.824 24.514 20.208 23.898 19.448 23.898 18.687 23.898 18.071 24.514 18.071 25.274L18.071 33.534C18.071 34.295 18.687 34.911 19.448 34.911 20.208 34.911 20.824 34.295 20.824 33.534L20.824 25.274ZM29.084 25.274C29.084 24.514 28.468 23.898 27.708 23.898 26.947 23.898 26.331 24.514 26.331 25.274L26.331 33.534C26.331 34.295 26.947 34.911 27.708 34.911 28.468 34.911 29.084 34.295 29.084 33.534L29.084 25.274Z"/>
</svg>
