<svg xmlns="http://www.w3.org/2000/svg" xmlns:xlink="http://www.w3.org/1999/xlink" width="41px" height="34px">
  <path fill-rule="evenodd" fill="rgb(0, 0, 0)" d="M36.512 33.817L4.223 33.817C2.737 33.817 0.187 32.613 0.187 31.127 0.187 29.641 1.392 28.436 2.878 28.436L37.857 28.436C39.343 28.436 40.548 29.641 40.548 31.127 40.548 32.613 37.998 33.817 36.512 33.817ZM24.404 31.127L16.332 31.127C15.588 31.127 14.986 31.428 14.986 31.799 14.986 32.171 15.588 32.472 16.332 32.472L24.404 32.472C25.147 32.472 25.749 32.171 25.749 31.799 25.749 31.428 25.147 31.127 24.404 31.127ZM15.122 14.064L17.605 16.558 25.608 8.52C26.131 7.995 26.979 7.995 27.502 8.52L29.396 10.423C29.919 10.948 29.919 11.8 29.396 12.325L18.978 22.79C18.529 23.24 17.853 23.28 17.336 22.958 16.895 23.068 16.414 22.972 16.07 22.627L11.334 17.87C10.811 17.345 10.811 16.493 11.334 15.967L13.228 14.064C13.751 13.539 14.599 13.539 15.122 14.064ZM33.821 4.219L6.914 4.219 6.914 25.745 2.878 25.745 2.878 23.054 3.125 23.054C2.975 22.632 2.878 22.183 2.878 21.709L2.878 4.219C2.878 1.99 4.685 0.183 6.914 0.183L33.821 0.183C36.05 0.183 37.857 1.99 37.857 4.219L37.857 21.709C37.857 22.183 37.76 22.632 37.61 23.054L37.857 23.054 37.857 25.745 33.821 25.745 33.821 4.219Z"/>
</svg>
